<?xml version="1.0" standalone="no"?>
<!DOCTYPE svg PUBLIC "-//W3C//DTD SVG 20010904//EN"
 "http://www.w3.org/TR/2001/REC-SVG-20010904/DTD/svg10.dtd">
<svg version="1.0" xmlns="http://www.w3.org/2000/svg"
 width="251.000000pt" height="251.000000pt" viewBox="0 0 251.000000 251.000000"
 preserveAspectRatio="xMidYMid meet">
<metadata>
Created by potrace 1.11, written by Peter Selinger 2001-2013
</metadata>
<g transform="translate(0.000000,251.000000) scale(0.100000,-0.100000)"
fill="#000000" stroke="none">
<path d="M1548 2047 c-15 -12 -48 -57 -73 -100 -45 -74 -68 -128 -120 -276
-12 -35 -30 -70 -40 -77 -11 -8 -44 -14 -75 -14 -30 0 -80 -6 -110 -14 -53
-14 -90 -8 -90 13 0 11 -106 154 -142 191 -13 14 -31 37 -40 51 -9 15 -45 48
-80 74 -54 41 -67 46 -98 41 -77 -12 -130 -111 -150 -279 -18 -153 6 -494 39
-556 6 -11 11 -27 11 -37 0 -33 45 -106 92 -150 42 -39 48 -50 48 -85 0 -29
-7 -50 -25 -71 -30 -36 -31 -43 -4 -62 15 -10 20 -21 16 -36 -6 -21 15 -50 37
-50 7 0 18 -12 25 -26 10 -23 16 -25 50 -21 21 2 52 -1 68 -8 l30 -13 -13 -63
c-8 -35 -14 -79 -14 -96 l0 -33 440 0 440 0 -5 22 c-33 145 -38 254 -12 287 6
7 32 23 57 35 28 13 45 28 45 39 0 10 11 26 25 37 22 16 23 21 12 45 -11 23
-10 30 4 46 15 17 15 20 -4 51 -11 18 -25 50 -32 71 -11 35 -10 39 13 58 84
65 94 171 41 425 -51 251 -113 416 -191 515 -71 90 -123 110 -175 66z"/>
<path d="M1975 1050 c-36 -40 2 -174 53 -187 58 -14 156 64 150 121 -4 36 -41
61 -70 45 -14 -7 -23 -4 -40 16 -26 30 -68 33 -93 5z"/>
</g>
</svg>
